/* XPM */
static char *_a0bbf2b98d69a8325b6a3c557608e42[] = {
/* columns rows colors chars-per-pixel */
"21 21 91 1 ",
"  c None",
". c #6A72D7",
"X c #6A72D8",
"o c #6B75D8",
"O c #6976D8",
"+ c #6A76D9",
"@ c #6A7BD9",
"# c #6B7BD9",
"$ c #6A7FD9",
"% c #6A80D9",
"& c #6A84DA",
"* c #6D86DB",
"= c #6A88D9",
"- c #6A88DA",
"; c #6B8DD9",
": c #6A8EDA",
"> c #6A91DA",
", c #6A96DB",
"< c #6B96DB",
"1 c #6A97DB",
"2 c #6A9ADB",
"3 c #6B9ADB",
"4 c #6B9BDB",
"5 c #6B9FDB",
"6 c #6D98DC",
"7 c #6F9ADC",
"8 c #6D9CDC",
"9 c #6F9EDC",
"0 c #7195DC",
"q c #7995DE",
"w c #709BDD",
"e c #749ADC",
"r c #779BDD",
"t c #749DDD",
"y c #7999DD",
"u c #7A9BDD",
"i c #7E9CDF",
"p c #7D9FDF",
"a c #6EA1DC",
"s c #6FA2DC",
"d c #6BA4DC",
"f c #6BA5DC",
"g c #6BA4DD",
"h c #6CA4DC",
"j c #6BA8DC",
"k c #6BA9DC",
"l c #6BA8DD",
"z c #6EAADD",
"x c #6BADDC",
"c c #73A0DD",
"v c #73A4DD",
"b c #76A5DD",
"n c #76A6DE",
"m c #79A0DE",
"M c #7CA2DF",
"N c #78A5DE",
"B c #75AADE",
"V c #7AA9DF",
"C c #7DABDF",
"Z c #79ADDF",
"A c #6BB1DC",
"S c #6FB3DE",
"D c #6AB6DD",
"F c #6BB6DD",
"G c #6CB7DD",
"H c #6ABADD",
"J c #6BBADD",
"K c #6BBBDD",
"L c #6ABFDD",
"P c #6BBFDD",
"I c #74B2DE",
"U c #7FA5E0",
"Y c #7CA6E0",
"T c #7EA7E0",
"R c #7BA9E0",
"E c #7CAFE0",
"W c #7CAFE1",
"Q c #7BB1E0",
"! c #7BB2E0",
"~ c #6BC0DD",
"^ c #6BC3DE",
"/ c #6BC3DF",
"( c #839CE0",
") c #829FE0",
"_ c #879FE1",
"` c #879CE2",
"' c #83A0E0",
"] c #81A2E0",
"[ c #80B1E2",
"{ c #81B6E2",
"} c #83BAE1",
/* pixels */
"                     ",
"          8          ",
"         <2R         ",
"         <2b         ",
"         74a[        ",
"        0w8aQ        ",
"        etcbB        ",
"       yumNbB{       ",
"       iUmYVZ!       ",
"      ()]UYCE!}      ",
"      _'ew7dhzI      ",
"     _q:><14djxS     ",
"     *-   14djxAG    ",
"    %&-    ddjxAF    ",
"    $&-:       AFK   ",
"   #$&->    d  AFK   ",
"  +#$&-      jxAFK   ",
"  +#$&        xAFK~  ",
" X+#%           FKK^ ",
" Xo               ~^ ",
"                     "
};
